<?xml version="1.0" encoding="UTF-8" standalone="no"?>
<!-- Created with Inkscape (http://www.inkscape.org/) -->

<svg
   width="512"
   height="512"
   viewBox="0 0 512 512"
   version="1.1"
   id="svg1"
   inkscape:version="1.4 (86a8ad7, 2024-10-11)"
   sodipodi:docname="fladivos2.0.svg"
   xmlns:inkscape="http://www.inkscape.org/namespaces/inkscape"
   xmlns:sodipodi="http://sodipodi.sourceforge.net/DTD/sodipodi-0.dtd"
   xmlns="http://www.w3.org/2000/svg"
   xmlns:svg="http://www.w3.org/2000/svg">
  <sodipodi:namedview
     id="namedview1"
     pagecolor="#ffffff"
     bordercolor="#000000"
     borderopacity="0.25"
     inkscape:showpageshadow="2"
     inkscape:pageopacity="0.0"
     inkscape:pagecheckerboard="0"
     inkscape:deskcolor="#d1d1d1"
     inkscape:document-units="px"
     inkscape:zoom="1.5761719"
     inkscape:cx="255.68278"
     inkscape:cy="205.24411"
     inkscape:window-width="1920"
     inkscape:window-height="1009"
     inkscape:window-x="-8"
     inkscape:window-y="-8"
     inkscape:window-maximized="1"
     inkscape:current-layer="layer1" />
  <defs
     id="defs1">
    <inkscape:path-effect
       effect="bspline"
       id="path-effect19"
       is_visible="true"
       lpeversion="1.3"
       weight="33.333333"
       steps="2"
       helper_size="0"
       apply_no_weight="true"
       apply_with_weight="true"
       only_selected="false"
       uniform="false" />
    <inkscape:path-effect
       effect="bspline"
       id="path-effect21"
       is_visible="true"
       lpeversion="1.3"
       weight="33.333333"
       steps="2"
       helper_size="0"
       apply_no_weight="true"
       apply_with_weight="true"
       only_selected="false"
       uniform="false" />
    <inkscape:path-effect
       effect="bspline"
       id="path-effect22"
       is_visible="true"
       lpeversion="1.3"
       weight="33.333333"
       steps="2"
       helper_size="0"
       apply_no_weight="true"
       apply_with_weight="true"
       only_selected="false"
       uniform="false" />
    <inkscape:path-effect
       effect="bspline"
       id="path-effect23"
       is_visible="true"
       lpeversion="1.3"
       weight="33.333333"
       steps="2"
       helper_size="0"
       apply_no_weight="true"
       apply_with_weight="true"
       only_selected="false"
       uniform="false" />
    <inkscape:path-effect
       effect="bspline"
       id="path-effect25"
       is_visible="true"
       lpeversion="1.3"
       weight="33.333333"
       steps="2"
       helper_size="0"
       apply_no_weight="true"
       apply_with_weight="true"
       only_selected="false"
       uniform="false" />
    <inkscape:path-effect
       effect="bspline"
       id="path-effect30"
       is_visible="true"
       lpeversion="1.3"
       weight="33.333333"
       steps="2"
       helper_size="0"
       apply_no_weight="true"
       apply_with_weight="true"
       only_selected="false"
       uniform="false" />
    <inkscape:path-effect
       effect="bspline"
       id="path-effect31"
       is_visible="true"
       lpeversion="1.3"
       weight="33.333333"
       steps="2"
       helper_size="0"
       apply_no_weight="true"
       apply_with_weight="true"
       only_selected="false"
       uniform="false" />
  </defs>
  <g
     inkscape:label="Camada 1"
     inkscape:groupmode="layer"
     id="layer1">
    <rect
       style="fill:#c41ace;fill-opacity:1;fill-rule:evenodd;stroke-width:23.5222"
       id="rect1"
       width="478.42331"
       height="347.7486"
       x="16.179962"
       y="12.039259"
       ry="30.001842"
       transform="matrix(0.99999962,-8.6938136e-4,9.0741175e-4,0.99999959,0,0)" />
    <rect
       style="fill:#e580ff;fill-rule:evenodd;stroke-width:23.5222"
       id="rect2"
       width="94.85981"
       height="25.910686"
       x="208.64922"
       y="358.42422"
       ry="0"
       transform="matrix(0.99999962,-8.6938136e-4,9.0741175e-4,0.99999959,0,0)" />
    <path
       sodipodi:type="star"
       style="fill:#c41ace;fill-opacity:1;fill-rule:evenodd;stroke-width:4.16999"
       id="path2"
       inkscape:flatsided="false"
       sodipodi:sides="3"
       sodipodi:cx="59.470566"
       sodipodi:cy="187.6357"
       sodipodi:r1="16.849388"
       sodipodi:r2="9.3499537"
       sodipodi:arg1="0.52847833"
       sodipodi:arg2="1.4665646"
       inkscape:rounded="0"
       inkscape:randomized="0"
       d="m 74.021282,196.13149 -13.577918,0.80342 -15.605731,-0.94582 6.093182,-12.16053 8.621968,-13.04205 7.484735,11.35711 z"
       inkscape:transform-center-x="-0.2856685"
       inkscape:transform-center-y="-3.588029"
       transform="matrix(5.9973445,-0.00528396,0.00527321,5.8892502,-103.96316,-729.73355)" />
    <rect
       style="fill:#c41ace;fill-opacity:1;fill-rule:evenodd;stroke-width:23.5222"
       id="rect6"
       width="225.46387"
       height="32.729271"
       x="137.16066"
       y="397.97235"
       transform="matrix(0.99999962,-8.6938136e-4,9.0741175e-4,0.99999959,0,0)" />
    <rect
       style="fill:#eeaaff;fill-rule:evenodd;stroke-width:23.5222"
       id="rect7"
       width="423.43207"
       height="295.92728"
       x="43.675587"
       y="35.222801"
       ry="32.729271"
       transform="matrix(0.99999962,-8.6938136e-4,9.0741175e-4,0.99999959,0,0)" />
    <g
       id="g31"
       transform="matrix(7.5408649,-0.00613086,0.00669773,6.9026187,-469.31932,-682.1179)">
      <g
         id="g32"
         transform="matrix(0.8402896,0,0,0.82019636,-10.21702,-55.045747)">
        <g
           id="g23"
           transform="translate(0,0.242737)">
          <path
             style="fill:#d42aff;fill-opacity:1;fill-rule:evenodd;stroke:#c41ace;stroke-width:1.37;stroke-dasharray:none;stroke-opacity:1"
             d="m 126.34461,253.78153 c 0.30342,-18.44801 0.42479,-18.56938 0.42479,-18.56938 z"
             id="path8" />
          <path
             style="fill:#c41ace;fill-opacity:1;fill-rule:evenodd;stroke:#c41ace;stroke-width:0.07;stroke-dasharray:none;stroke-opacity:1"
             d="m 125.91982,235.33352 c 0.18205,-9.89153 2.36669,-11.46932 2.36669,-11.46932 l 1.69915,-2.06327 1.63848,-0.78889 1.69916,0.12137 1.153,0.78889 1.03163,1.51711 0.18205,2.306 -1.39573,2.24532 -1.88122,1.33505 -2.06326,0.72821 -2.18463,0.30342 -0.72821,-0.0607 -0.12137,1.27437 v 1.45642 1.03163 z"
             id="path9" />
          <path
             style="fill:#c41ace;fill-opacity:1;fill-rule:evenodd;stroke:#c41ace;stroke-width:0.07;stroke-dasharray:none;stroke-opacity:1"
             d="m 127.55829,230.35741 c -0.24273,4.00516 0,0 0,0 z"
             id="path10" />
          <path
             style="fill:#c41ace;fill-opacity:1;fill-rule:evenodd;stroke:#c41ace;stroke-width:0.07;stroke-dasharray:none;stroke-opacity:1"
             d="m 127.55829,232.84547 -0.54616,0.97095 z"
             id="path11" />
          <path
             style="fill:#c41ace;fill-opacity:1;fill-rule:evenodd;stroke:#c41ace;stroke-width:0.07;stroke-dasharray:none;stroke-opacity:1"
             d="m 125.91982,233.57368 c -0.12137,7.82827 0,0 0,0 z"
             id="path12" />
          <ellipse
             style="fill:#c41ace;fill-opacity:1;fill-rule:evenodd;stroke:#c41ace;stroke-width:0.105909;stroke-dasharray:none;stroke-opacity:1"
             id="path18"
             cx="134.07907"
             cy="249.35167"
             rx="4.3228197"
             ry="4.1821666"
             transform="matrix(0.98363319,-0.18018254,0,1,0,0)" />
          <rect
             style="fill:#c41ace;fill-opacity:1;fill-rule:evenodd;stroke:#c41ace;stroke-width:0.0889518;stroke-dasharray:none;stroke-opacity:1"
             id="rect18"
             width="1.9120092"
             height="24.4828"
             x="125.52193"
             y="230.39458"
             ry="0" />
          <path
             style="fill:#c41ace;fill-opacity:1;fill-rule:evenodd;stroke:#c41ace;stroke-width:0.07;stroke-dasharray:none;stroke-opacity:1"
             d="m 125.96028,228.9465 c -0.38434,-0.0152 -1.15301,-0.0455 -1.90146,-0.14158 -0.74844,-0.0961 -1.47664,-0.2579 -2.0936,-0.45513 -0.61696,-0.19722 -1.12265,-0.42984 -1.64353,-0.73832 -0.52088,-0.30849 -1.05691,-0.69281 -1.46148,-1.09232 -0.40456,-0.39951 -0.67763,-0.81417 -0.87486,-1.19345 -0.19722,-0.37928 -0.31859,-0.72316 -0.37423,-1.05186 -0.0556,-0.32871 -0.0455,-0.64225 -0.24782,-0.85464 -0.20229,-0.2124 -0.61696,-0.32365 -0.83441,-0.19722 -0.21745,0.12643 -0.23769,0.49053 -0.20735,0.90015 0.0303,0.40962 0.11126,0.86475 0.21746,1.24909 0.1062,0.38433 0.23768,0.69786 0.40962,1.00634 0.17194,0.30848 0.38433,0.6119 0.72821,1.0367 0.34388,0.42479 0.81923,0.97093 1.57273,1.43112 0.75351,0.4602 1.78513,0.83441 2.9432,1.08726 1.15807,0.25286 2.44253,0.38434 3.16063,0.41468 0.71809,0.0303 0.8698,-0.0404 0.94061,-0.28825 0.0708,-0.2478 0.0607,-0.67258 0.0556,-0.88498 -0.005,-0.2124 -0.005,-0.21242 -0.38937,-0.22759 z"
             id="path19"
             inkscape:path-effect="#path-effect19"
             inkscape:original-d="m 126.34461,228.96167 c -0.76867,-0.0303 -1.53734,-0.0607 -2.306,-0.091 -0.72823,-0.16183 -1.45643,-0.32365 -2.18464,-0.48548 -0.50571,-0.23262 -1.0114,-0.46524 -1.5171,-0.69786 -0.53606,-0.38435 -1.07209,-0.76867 -1.60814,-1.153 -0.27308,-0.41469 -0.54615,-0.82935 -0.81923,-1.24403 -0.12137,-0.34388 -0.24274,-0.68776 -0.36411,-1.03163 0.0101,-0.31354 0.0202,-0.62708 0.0303,-0.94061 -0.41468,-0.11126 -0.82935,-0.22251 -1.24402,-0.33376 -0.0202,0.36411 -0.0405,0.72821 -0.0607,1.09231 0.0809,0.45514 0.16183,0.91027 0.24274,1.3654 0.13149,0.31354 0.26297,0.62707 0.39445,0.94061 0.2124,0.30342 0.42479,0.60684 0.63718,0.91026 0.47537,0.54617 0.95072,1.09231 1.42608,1.63847 1.03165,0.37423 2.06327,0.74844 3.0949,1.12266 1.28451,0.13149 2.56897,0.26297 3.85345,0.39445 0.15171,-0.0708 0.30342,-0.1416 0.45513,-0.21239 -0.0101,-0.4248 -0.0202,-0.84958 -0.0303,-1.27438 z" />
          <path
             style="fill:#c41ace;fill-opacity:1;fill-rule:evenodd;stroke:#c41ace;stroke-width:0.07;stroke-dasharray:none;stroke-opacity:1"
             id="path20"
             d="m 126.03666,230.22907 c 0.0117,-0.002 0.0232,-0.007 0.0351,-0.006 0.0846,0.008 0.1101,0.14353 0.12717,0.20694 0.0142,-0.0551 0.004,0.0732 0.0169,0.0578 0.0156,-0.0189 0.0101,-0.14009 0.0104,-0.16733 -0.001,-0.0424 -0.0132,-0.0918 -0.0556,-0.11202 -0.006,-0.003 -0.0129,-0.007 -0.0191,-0.004 -0.007,0.002 -0.0101,0.011 -0.0151,0.0165 -0.004,0.0118 -0.009,0.0232 -0.0117,0.0355 -0.0172,0.0898 -0.006,0.22294 0.003,0.31459 0.008,0.0491 0.01,0.0541 0.0416,0.019 0,0 -7.9e-4,-5.3e-4 -7.9e-4,-5.3e-4 v 0 c -0.0288,0.0316 -0.0336,0.0281 -0.0399,-0.018 -0.009,-0.0916 -0.0201,-0.2247 -0.003,-0.31454 0.002,-0.0122 0.008,-0.0237 0.0117,-0.0355 0.005,-0.005 0.008,-0.0136 0.0151,-0.0164 0.005,-0.002 0.012,7.9e-4 0.0174,0.003 0.0425,0.0201 0.0544,0.0696 0.0556,0.11194 -2e-4,0.024 0.002,0.15257 -0.009,0.16819 -0.0112,0.0166 -0.006,-0.11552 -0.0169,-0.0577 -0.0173,-0.0643 -0.0431,-0.20001 -0.12887,-0.20793 -0.0118,-0.001 -0.0234,0.004 -0.0351,0.006 z" />
          <path
             style="fill:#c41ace;fill-opacity:1;fill-rule:evenodd;stroke:#c41ace;stroke-width:0.07;stroke-dasharray:none;stroke-opacity:1"
             d="m 116.26091,223.64169 c 0.0202,-0.16183 0.0607,-0.48547 -0.0152,-0.73327 -0.0759,-0.24779 -0.26802,-0.41973 -0.45008,-0.70798 -0.18205,-0.28826 -0.35399,-0.69281 -0.44501,-1.12772 -0.091,-0.43491 -0.10112,-0.90015 -0.0354,-1.44126 0.0657,-0.5411 0.20735,-1.15805 0.48043,-1.80535 0.27308,-0.64731 0.67763,-1.32493 1.06197,-1.93178 0.38434,-0.60685 0.74844,-1.14288 1.27437,-1.91156 0.52594,-0.76868 1.21368,-1.76995 1.74973,-2.64988 0.53605,-0.87993 0.92037,-1.63846 1.21368,-2.45265 0.29331,-0.81419 0.49559,-1.68398 0.5411,-2.39197 0.0455,-0.70799 -0.0657,-1.25414 -0.20734,-1.68905 -0.14159,-0.4349 -0.31353,-0.75854 -0.48547,-1.04173 -0.17194,-0.2832 -0.34388,-0.52594 -0.60685,-0.72822 -0.26297,-0.20228 -0.61695,-0.3641 -0.88498,-0.46525 -0.26803,-0.10114 -0.45007,-0.14159 -0.47535,-0.41973 -0.0253,-0.27814 0.1062,-0.79395 0.3287,-1.00635 0.22251,-0.21239 0.53605,-0.12137 0.83948,0.0101 0.30342,0.13149 0.59672,0.30342 0.90015,0.52593 0.30342,0.22252 0.61695,0.49559 0.87486,0.83442 0.25791,0.33882 0.46018,0.74337 0.61695,1.09231 0.15677,0.34894 0.26803,0.64224 0.354,1.12772 0.086,0.48548 0.14665,1.16311 0.13653,1.78007 -0.0101,0.61696 -0.091,1.17322 -0.24274,1.76995 -0.15171,0.59674 -0.37421,1.23391 -0.62706,1.81548 -0.25286,0.58156 -0.53605,1.10748 -0.82936,1.60307 -0.29331,0.49559 -0.59672,0.96083 -0.93555,1.46654 -0.33882,0.50571 -0.71303,1.05185 -1.0822,1.56262 -0.36917,0.51076 -0.73326,0.98611 -1.06197,1.47664 -0.32871,0.49054 -0.62201,0.99624 -0.86475,1.42103 -0.24274,0.42479 -0.4349,0.76866 -0.5765,1.14794 -0.1416,0.37927 -0.23262,0.79395 -0.26802,1.18334 -0.0354,0.3894 -0.0152,0.7535 0.0253,0.97095 0.0405,0.21746 0.10114,0.28825 0.15172,0.33377 0.0506,0.0455 0.091,0.0657 0.0101,0.48548 -0.0809,0.41976 -0.28317,1.23898 -0.38431,1.64859 -0.10114,0.40962 -0.1012,0.4096 -0.081,0.24778 z"
             id="path21"
             inkscape:path-effect="#path-effect21"
             inkscape:original-d="m 116.24068,223.80351 c 0.0405,-0.32364 0.0809,-0.64729 0.12137,-0.97094 -0.19217,-0.17194 -0.38433,-0.34388 -0.5765,-0.51582 -0.17194,-0.40457 -0.34388,-0.80912 -0.51582,-1.21368 -0.0101,-0.46526 -0.0202,-0.9305 -0.0303,-1.39574 0.1416,-0.61697 0.2832,-1.23392 0.42479,-1.85087 0.40457,-0.67766 0.80912,-1.35528 1.21369,-2.03292 0.36411,-0.53606 0.72821,-1.07209 1.09231,-1.60814 0.68777,-1.00131 1.37551,-2.00258 2.06327,-3.00387 0.38434,-0.75857 0.76866,-1.5171 1.153,-2.27566 0.20228,-0.86982 0.40456,-1.73961 0.60684,-2.60942 -0.11126,-0.54617 -0.22251,-1.09232 -0.33376,-1.63848 -0.17195,-0.32365 -0.34388,-0.64729 -0.51582,-0.97094 -0.17194,-0.24274 -0.34388,-0.48548 -0.51582,-0.72821 -0.354,-0.16183 -0.70798,-0.32365 -1.06197,-0.48548 -0.18206,-0.0405 -0.36411,-0.0809 -0.54616,-0.12137 0.13149,-0.51582 0.26297,-1.03163 0.39445,-1.54745 0.31354,0.091 0.62707,0.18206 0.9406,0.27308 0.29332,0.17195 0.58662,0.34388 0.87993,0.51582 0.31354,0.27309 0.62707,0.54616 0.9406,0.81924 0.20229,0.40457 0.40457,0.80912 0.60684,1.21368 0.11126,0.29332 0.22251,0.58662 0.33377,0.87992 0.0607,0.67766 0.12137,1.35529 0.18205,2.03293 -0.0809,0.55628 -0.16182,1.11254 -0.24274,1.66882 -0.22251,0.63719 -0.44501,1.27436 -0.66752,1.91155 -0.2832,0.52594 -0.56639,1.05186 -0.84958,1.57779 -0.30343,0.46525 -0.60684,0.93049 -0.91027,1.39574 -0.37422,0.54617 -0.74844,1.09231 -1.12265,1.63847 -0.36412,0.47537 -0.72821,0.95072 -1.09232,1.42608 -0.29331,0.50571 -0.58661,1.01141 -0.87992,1.51711 -0.19217,0.34388 -0.38434,0.68775 -0.5765,1.03163 -0.091,0.41468 -0.18206,0.82935 -0.27308,1.24403 0.0202,0.36411 0.0405,0.72821 0.0607,1.09231 0.0607,0.0708 0.12137,0.1416 0.18206,0.2124 0.0405,0.0202 0.0809,0.0404 0.12136,0.0607 -0.20228,0.81926 -0.40456,1.63848 -0.60684,2.45771 z" />
          <path
             style="fill:#c41ace;fill-opacity:1;fill-rule:evenodd;stroke:#c41ace;stroke-width:0.07;stroke-dasharray:none;stroke-opacity:1"
             d="m 117.54539,224.0766 c 0,-0.2124 0,-0.63719 0.0202,-0.80407 0.0202,-0.16689 0.0607,-0.0759 0.26802,-0.0405 0.20735,0.0354 0.58156,0.0152 1.02658,-0.14667 0.44503,-0.16183 0.96083,-0.46524 1.46907,-0.80406 0.50823,-0.33883 1.00887,-0.71304 1.4817,-1.09738 0.47284,-0.38433 0.91785,-0.77877 1.4716,-1.21874 0.55375,-0.43996 1.21621,-0.92543 1.81547,-1.30471 0.59926,-0.37927 1.13529,-0.65235 1.64606,-0.87992 0.51076,-0.22757 0.99623,-0.40962 1.53986,-0.56639 0.54364,-0.15677 1.14541,-0.28825 1.75985,-0.34387 0.61443,-0.0556 1.24149,-0.0354 1.8711,0.0708 0.6296,0.1062 1.26171,0.29836 1.7573,0.49306 0.4956,0.1947 0.85464,0.39192 1.19599,0.61948 0.34135,0.22757 0.665,0.48548 1.00382,0.77626 0.33882,0.29078 0.69281,0.61442 0.98612,0.90521 0.29331,0.29078 0.52592,0.54868 0.77625,0.83693 0.25032,0.28825 0.51834,0.60684 0.72821,0.88751 0.20987,0.28066 0.36158,0.5234 0.54869,0.81924 0.18711,0.29583 0.40961,0.64476 0.68269,1.11507 0.27309,0.47031 0.59673,1.06197 0.86728,1.59296 0.27056,0.53099 0.48801,1.00129 0.67006,1.43114 0.18206,0.42985 0.32871,0.81923 0.46525,1.15552 0.13654,0.3363 0.26296,0.61949 0.39697,0.8243 0.13401,0.20481 0.27561,0.33124 0.44249,0.3894 0.16689,0.0582 0.35905,0.0481 0.5234,0.003 0.16435,-0.0455 0.30089,-0.12642 0.37927,-0.17446 0.0784,-0.048 0.0986,-0.0632 0.0152,-0.32617 -0.0834,-0.26297 -0.27055,-0.77372 -0.50823,-1.35276 -0.23769,-0.57903 -0.52593,-1.22632 -0.74591,-1.72191 -0.21999,-0.49559 -0.37169,-0.83946 -0.51076,-1.14288 -0.13907,-0.30343 -0.26549,-0.56639 -0.60432,-1.15301 -0.33883,-0.58663 -0.89003,-1.49687 -1.40585,-2.23014 -0.51582,-0.73328 -0.99623,-1.28954 -1.54493,-1.84582 -0.54869,-0.55628 -1.16563,-1.11254 -1.5879,-1.46906 -0.42226,-0.35652 -0.64982,-0.51328 -1.09485,-0.76108 -0.44502,-0.2478 -1.10747,-0.58661 -1.71685,-0.81418 -0.60938,-0.22757 -1.16564,-0.34388 -1.67135,-0.41468 -0.5057,-0.0708 -0.96082,-0.0961 -1.52469,-0.0734 -0.56387,0.0228 -1.23643,0.0935 -1.79776,0.19721 -0.56134,0.10367 -1.01141,0.24021 -1.53229,0.44755 -0.52088,0.20734 -1.11254,0.48547 -1.67134,0.77626 -0.55881,0.29078 -1.08473,0.59419 -1.53228,0.8875 -0.44755,0.29331 -0.8167,0.5765 -1.2592,0.93808 -0.44249,0.36158 -0.9583,0.80153 -1.32493,1.10749 -0.36664,0.30595 -0.58409,0.47788 -0.8243,0.65994 -0.24021,0.18205 -0.50317,0.37421 -0.84958,0.58408 -0.34641,0.20987 -0.77625,0.43743 -1.04933,0.56387 -0.27308,0.12643 -0.38939,0.15173 -0.48549,0.16691 -0.0961,0.0152 -0.17192,0.0203 -0.26295,0.46023 -0.091,0.43998 -0.19722,1.31482 -0.25032,1.75225 -0.0531,0.43744 -0.0531,0.43736 -0.0531,0.22497 z"
             id="path22"
             inkscape:path-effect="#path-effect22"
             inkscape:original-d="m 117.54539,224.28899 c 0,-0.42479 0,-0.84958 0,-1.27437 0.0405,0.091 0.0809,0.18205 0.12137,0.27308 0.37423,-0.0202 0.74844,-0.0405 1.12266,-0.0607 0.51583,-0.30342 1.03163,-0.60684 1.54745,-0.91026 0.50065,-0.37423 1.00129,-0.74844 1.50193,-1.12266 0.44503,-0.39445 0.89004,-0.78889 1.33506,-1.18334 0.66248,-0.48548 1.32494,-0.97095 1.98741,-1.45642 0.53605,-0.27309 1.07208,-0.54616 1.60813,-0.81924 0.48548,-0.18206 0.97095,-0.36411 1.45642,-0.54616 0.6018,-0.13148 1.20357,-0.26296 1.80536,-0.39445 0.62708,0.0203 1.25414,0.0405 1.88121,0.0607 0.63214,0.19217 1.26425,0.38433 1.89638,0.5765 0.35906,0.19723 0.7181,0.39445 1.07715,0.59167 0.32365,0.25791 0.6473,0.51582 0.97094,0.77372 0.354,0.32366 0.70799,0.6473 1.06198,0.97095 0.23263,0.25792 0.46524,0.51582 0.69787,0.77373 0.26803,0.31859 0.53604,0.63718 0.80406,0.95577 0.15172,0.24274 0.30343,0.48548 0.45514,0.72821 0.22251,0.34894 0.44501,0.69787 0.66752,1.04681 0.32366,0.59168 0.6473,1.18334 0.97095,1.77501 0.21746,0.47031 0.4349,0.94061 0.65236,1.41091 0.14665,0.3894 0.2933,0.77878 0.43996,1.16817 0.12643,0.2832 0.25285,0.56639 0.37927,0.84958 0.1416,0.12643 0.2832,0.25285 0.42479,0.37928 0.19218,-0.0101 0.38434,-0.0202 0.5765,-0.0303 0.13655,-0.0809 0.27308,-0.16183 0.40962,-0.24274 0.0202,-0.0152 0.0405,-0.0303 0.0607,-0.0455 -0.18711,-0.51077 -0.37422,-1.02152 -0.56133,-1.53228 -0.28826,-0.64731 -0.5765,-1.2946 -0.86475,-1.9419 -0.15172,-0.34388 -0.30342,-0.68775 -0.45514,-1.03163 -0.12642,-0.26297 -0.25284,-0.52593 -0.37927,-0.7889 -0.55123,-0.91028 -1.10243,-1.82052 -1.65365,-2.73079 -0.48042,-0.55628 -0.96083,-1.11254 -1.44125,-1.66881 -0.61697,-0.55629 -1.23391,-1.11255 -1.85087,-1.66882 -0.22757,-0.15677 -0.45513,-0.31353 -0.6827,-0.4703 -0.66248,-0.33883 -1.32493,-0.67764 -1.98741,-1.01646 -0.55628,-0.11632 -1.11254,-0.23263 -1.66881,-0.34894 -0.45514,-0.0253 -0.91026,-0.0506 -1.3654,-0.0759 -0.6726,0.0708 -1.34516,0.14159 -2.01775,0.21239 -0.45008,0.13654 -0.90015,0.27308 -1.35022,0.40962 -0.59169,0.27814 -1.18335,0.55627 -1.77502,0.83441 -0.52594,0.30343 -1.05186,0.60684 -1.57779,0.91026 -0.36917,0.2832 -0.73832,0.56639 -1.10748,0.84958 -0.51583,0.43997 -1.03164,0.87992 -1.54745,1.31988 -0.21746,0.17195 -0.43491,0.34388 -0.65236,0.51582 -0.26297,0.19217 -0.52593,0.38433 -0.78889,0.5765 -0.42986,0.22757 -0.8597,0.45513 -1.28955,0.6827 -0.11631,0.0253 -0.23262,0.0506 -0.34893,0.0759 -0.0759,0.005 -0.15171,0.0101 -0.22757,0.0152 -0.10619,0.87489 -0.21239,1.74973 -0.31859,2.6246 z" />
          <path
             style="fill:#c41ace;fill-opacity:1;fill-rule:evenodd;stroke:#c41ace;stroke-width:0.07;stroke-dasharray:none;stroke-opacity:1"
             d="m 117.08596,223.54092 c -0.1341,-0.0322 -0.40228,-0.0966 -0.56141,-0.1484 -0.15913,-0.0519 -0.20919,-0.0912 -0.14661,-0.48096 0.0626,-0.38977 0.2378,-1.12996 0.42554,-1.71461 0.18773,-0.58466 0.38798,-1.01376 0.57392,-1.37492 0.18594,-0.36116 0.35758,-0.65438 0.56677,-0.96727 0.20919,-0.31289 0.45592,-0.64544 0.82782,-1.15321 0.37189,-0.50778 0.86892,-1.19076 1.24976,-1.68423 0.38083,-0.49347 0.64543,-0.79741 1.04594,-1.31413 0.4005,-0.51672 0.93686,-1.24618 1.29087,-1.75216 0.35402,-0.50599 0.52565,-0.78848 0.72769,-1.11746 0.20204,-0.32898 0.43447,-0.70444 0.60253,-0.99051 0.16807,-0.28607 0.27177,-0.48274 0.51136,-1.03879 0.23958,-0.55606 0.61504,-1.47146 0.86535,-2.22776 0.2503,-0.75629 0.37546,-1.35345 0.45055,-1.85228 0.0751,-0.49884 0.10013,-0.89933 0.11264,-1.27301 0.0125,-0.37368 0.0125,-0.72053 -0.004,-1.03163 -0.0161,-0.3111 -0.0482,-0.58645 -0.13943,-0.96549 -0.0912,-0.37904 -0.24136,-0.86177 -0.42731,-1.29266 -0.18595,-0.4309 -0.40764,-0.80993 -0.64723,-1.13355 -0.23958,-0.32362 -0.49704,-0.5918 -0.76523,-0.8135 -0.26819,-0.22171 -0.54711,-0.39693 -0.82781,-0.5346 -0.28071,-0.13767 -0.5632,-0.23779 -0.84391,-0.295 -0.2807,-0.0572 -0.55961,-0.0715 -0.79919,-0.0715 -0.23959,0 -0.43983,0.0143 -0.68299,0.0554 -0.24316,0.0411 -0.52923,0.10906 -0.8153,0.20382 -0.28607,0.0948 -0.57213,0.21634 -0.81708,0.36295 -0.24495,0.14661 -0.44877,0.31825 -0.55604,0.41121 -0.10727,0.093 -0.11803,0.1073 -0.20206,0.10907 -0.084,0.002 -0.24136,-0.009 -0.47022,-0.0179 -0.22886,-0.009 -0.52922,-0.0161 -0.80456,-3e-5 -0.27534,0.0161 -0.52566,0.0554 -0.79742,0.10548 -0.27177,0.0501 -0.56498,0.11085 -0.82066,0.17164 -0.25567,0.0608 -0.4738,0.12158 -0.69551,0.21098 -0.2217,0.0894 -0.44697,0.2074 -0.68298,0.37189 -0.23601,0.16449 -0.48274,0.37546 -0.67941,0.59181 -0.19667,0.21634 -0.34328,0.43803 -0.43983,0.70444 -0.0965,0.2664 -0.14303,0.57749 -0.15018,0.84032 -0.007,0.26283 0.0251,0.47738 0.0537,0.61325 0.0286,0.13587 0.0537,0.19312 0.20206,0.0519 0.1484,-0.14126 0.42016,-0.48096 0.69372,-0.75273 0.27355,-0.27177 0.54889,-0.47559 0.8296,-0.6508 0.2807,-0.17522 0.56676,-0.32183 0.87787,-0.45771 0.3111,-0.13589 0.64722,-0.26104 1.00481,-0.34508 0.35759,-0.084 0.73662,-0.12694 1.19076,-0.14839 0.45414,-0.0215 0.98336,-0.0215 1.37492,0.0107 0.39156,0.0322 0.64544,0.0965 0.8868,0.17701 0.24136,0.0804 0.47023,0.17701 0.58287,0.32005 0.11264,0.14304 0.10908,0.33255 0.0805,0.52027 -0.0286,0.18773 -0.0822,0.37369 -0.14125,0.55428 -0.059,0.18058 -0.12336,0.35578 -0.31646,0.37366 -0.1931,0.0179 -0.51492,-0.12158 -0.74198,-0.20561 -0.22707,-0.084 -0.35938,-0.11263 -0.53996,-0.13766 -0.18058,-0.025 -0.40943,-0.0465 -0.64365,-0.0519 -0.23422,-0.005 -0.4738,0.005 -0.73306,0.0358 -0.25926,0.0304 -0.53816,0.0805 -0.76522,0.1341 -0.22707,0.0536 -0.40229,0.11085 -0.56142,0.177 -0.15912,0.0662 -0.30215,0.14124 -0.49167,0.24316 -0.18953,0.10191 -0.42553,0.23064 -0.61684,0.35759 -0.19131,0.12694 -0.33792,0.25209 -0.49168,0.39155 -0.15376,0.13946 -0.31467,0.29322 -0.46307,0.4738 -0.1484,0.18058 -0.28428,0.38798 -0.37188,0.55425 -0.0876,0.16627 -0.12695,0.29145 -0.17522,0.44342 -0.0483,0.15196 -0.10549,0.33076 -0.17344,0.51671 -0.0679,0.18595 -0.1466,0.37903 -0.1895,0.4827 -0.0429,0.10366 -0.0501,0.11802 -0.11626,0.0376 -0.0662,-0.0805 -0.19133,-0.25567 -0.31469,-0.42731 -0.12337,-0.17164 -0.24494,-0.3397 -0.38261,-0.5632 -0.13768,-0.22349 -0.29143,-0.5024 -0.4005,-0.72232 -0.10907,-0.21992 -0.17342,-0.38082 -0.24852,-0.64007 -0.0751,-0.25925 -0.16092,-0.61684 -0.19668,-0.98337 -0.0358,-0.36652 -0.0215,-0.74198 0.007,-1.01911 0.0286,-0.27713 0.0715,-0.45591 0.15555,-0.68478 0.084,-0.22886 0.20919,-0.50777 0.31467,-0.72053 0.10548,-0.21276 0.19131,-0.35937 0.29501,-0.50062 0.1037,-0.14125 0.22528,-0.27713 0.37547,-0.41838 0.15019,-0.14125 0.32897,-0.28785 0.5632,-0.4434 0.23422,-0.15555 0.52385,-0.32004 0.78311,-0.44698 0.25925,-0.12695 0.4881,-0.21634 0.65078,-0.27534 0.16267,-0.059 0.25927,-0.0876 0.40766,-0.13587 0.1484,-0.0483 0.34865,-0.11621 0.57751,-0.16626 0.22886,-0.0501 0.48632,-0.0822 0.80815,-0.10904 0.32182,-0.0268 0.70801,-0.0483 0.97262,-0.0554 0.26461,-0.007 0.40765,1e-5 0.48277,0.005 0.0751,0.005 0.0822,0.009 0.19308,-0.0573 0.1109,-0.0661 0.32544,-0.20202 0.50961,-0.3093 0.18416,-0.10728 0.33791,-0.18594 0.5024,-0.25388 0.16449,-0.0679 0.33971,-0.12516 0.5328,-0.18952 0.19309,-0.0644 0.40407,-0.13588 0.6079,-0.18952 0.20383,-0.0536 0.40049,-0.0894 0.65259,-0.10906 0.25211,-0.0197 0.55962,-0.0232 0.89218,1e-5 0.33257,0.0232 0.69014,0.0733 1.02449,0.16271 0.33434,0.0894 0.64543,0.21813 0.89753,0.33971 0.2521,0.12158 0.44519,0.236 0.63113,0.37367 0.18595,0.13767 0.36474,0.29858 0.5632,0.49526 0.19847,0.19667 0.41659,0.4291 0.59539,0.64544 0.17879,0.21634 0.31825,0.41659 0.44698,0.62041 0.12873,0.20383 0.24673,0.41122 0.35758,0.62578 0.11085,0.21455 0.21455,0.43625 0.30037,0.64543 0.0858,0.20918 0.15376,0.40586 0.23779,0.71518 0.084,0.30931 0.18416,0.73126 0.23422,0.99945 0.0501,0.26819 0.0501,0.38261 0.0662,0.52207 0.0161,0.13946 0.0483,0.30395 0.0644,0.46486 0.0161,0.16092 0.0161,0.31825 0.0125,0.47738 -0.004,0.15912 -0.0108,0.32004 -0.0143,0.50598 -0.004,0.18595 -0.004,0.39692 -0.0161,0.63829 -0.0125,0.24138 -0.0375,0.51314 -0.0787,0.80279 -0.0411,0.28964 -0.0983,0.59716 -0.16449,0.91542 -0.0662,0.31825 -0.14125,0.64722 -0.2378,0.99229 -0.0966,0.34508 -0.21455,0.70623 -0.36831,1.11924 -0.15376,0.41302 -0.34328,0.87787 -0.4881,1.214 -0.14483,0.33614 -0.24495,0.54353 -0.47738,0.97979 -0.23244,0.43627 -0.59716,1.10136 -0.84032,1.52153 -0.24316,0.42016 -0.36474,0.59537 -0.47023,0.77059 -0.10549,0.17522 -0.19488,0.35043 -0.31468,0.54353 -0.11979,0.1931 -0.26997,0.40407 -0.4434,0.6508 -0.17343,0.24674 -0.3701,0.52923 -0.6079,0.83318 -0.23779,0.30395 -0.5167,0.62935 -0.81172,0.99051 -0.29501,0.36117 -0.6061,0.75808 -0.99945,1.27122 -0.39335,0.51314 -0.86893,1.14248 -1.21578,1.62165 -0.34686,0.47917 -0.56499,0.80814 -0.71875,1.05309 -0.15376,0.24494 -0.24315,0.40585 -0.33434,0.59181 -0.0912,0.18595 -0.18416,0.39691 -0.25031,0.56497 -0.0662,0.16806 -0.10549,0.29323 -0.14482,0.58645 -0.0393,0.29322 -0.0787,0.7545 -0.14124,0.99229 -0.0626,0.23779 -0.14841,0.25209 -0.19132,0.32897 -0.0429,0.0769 -0.0429,0.21634 -0.10728,0.26999 -0.0644,0.0536 -0.19311,0.0215 -0.25746,0.005 -0.0644,-0.0161 -0.0645,-0.0161 -0.19858,-0.0483 z"
             id="path23"
             inkscape:path-effect="#path-effect23"
             inkscape:original-d="m 117.22006,223.5731 c -0.26819,-0.0644 -0.53638,-0.12873 -0.80457,-0.19309 -0.0501,-0.0393 -0.10012,-0.0787 -0.15018,-0.11801 0.17522,-0.74021 0.35043,-1.4804 0.52565,-2.2206 0.20025,-0.42911 0.4005,-0.85821 0.60074,-1.28731 0.17165,-0.29322 0.34328,-0.58644 0.51492,-0.87966 0.24674,-0.33256 0.49347,-0.66511 0.74021,-0.99766 0.49705,-0.683 0.99408,-1.36598 1.49113,-2.04897 0.26462,-0.30395 0.52922,-0.60789 0.79384,-0.91184 0.53639,-0.72949 1.07275,-1.45895 1.60913,-2.18842 0.17165,-0.2825 0.34328,-0.56499 0.51492,-0.84748 0.23244,-0.37547 0.46486,-0.75093 0.6973,-1.12639 0.1037,-0.19668 0.20739,-0.39335 0.3111,-0.59002 0.37547,-0.91544 0.75093,-1.83084 1.12639,-2.74626 0.12516,-0.59717 0.25031,-1.19433 0.37546,-1.7915 0.025,-0.4005 0.0501,-0.80099 0.0751,-1.20148 0,-0.34687 0,-0.69372 0,-1.04058 -0.0322,-0.27534 -0.0644,-0.55068 -0.0965,-0.82602 -0.15019,-0.48275 -0.30037,-0.96548 -0.45056,-1.44822 -0.22171,-0.37905 -0.4434,-0.75808 -0.66511,-1.13712 -0.25746,-0.2682 -0.51492,-0.53638 -0.77238,-0.80457 -0.27892,-0.17522 -0.55784,-0.35043 -0.83675,-0.52565 -0.2825,-0.10013 -0.56499,-0.20025 -0.84748,-0.30037 -0.27892,-0.0143 -0.55783,-0.0286 -0.83675,-0.0429 -0.20025,0.0143 -0.40049,0.0286 -0.60074,0.0429 -0.28608,0.0679 -0.57214,0.13588 -0.85821,0.20382 -0.28607,0.12158 -0.57213,0.24316 -0.8582,0.36474 -0.20383,0.17164 -0.40765,0.34328 -0.61147,0.51492 -0.0107,0.0143 -0.0215,0.0286 -0.0322,0.0429 -0.15734,-0.0107 -0.31467,-0.0215 -0.47201,-0.0322 -0.30038,-0.007 -0.60074,-0.0143 -0.90111,-0.0215 -0.25032,0.0393 -0.50062,0.0787 -0.75093,0.118 -0.29323,0.0608 -0.58644,0.12159 -0.87966,0.18237 -0.21813,0.0608 -0.43626,0.12158 -0.65438,0.18237 -0.22529,0.11801 -0.45056,0.23601 -0.67584,0.35401 -0.24674,0.21098 -0.49347,0.42195 -0.7402,0.63293 -0.14661,0.22171 -0.29322,0.4434 -0.43983,0.66511 -0.0465,0.3111 -0.093,0.62219 -0.13946,0.93329 0.0322,0.21456 0.0644,0.42911 0.0966,0.64366 0.025,0.0572 0.0501,0.11443 0.0751,0.17164 0.27177,-0.33971 0.54353,-0.67941 0.8153,-1.01912 0.27534,-0.20383 0.55068,-0.40765 0.82602,-0.61147 0.28607,-0.14661 0.57213,-0.29322 0.8582,-0.43983 0.33614,-0.12516 0.67226,-0.25031 1.00839,-0.37547 0.37905,-0.0429 0.75808,-0.0858 1.13712,-0.12873 0.52924,0 1.05846,0 1.58768,0 0.25389,0.0644 0.50778,0.12873 0.76166,0.1931 0.22886,0.0965 0.45771,0.1931 0.68656,0.28964 -0.004,0.18953 -0.007,0.37905 -0.0107,0.56856 -0.0536,0.18595 -0.10728,0.3719 -0.16092,0.55784 -0.0644,0.17522 -0.12873,0.35043 -0.19309,0.52565 -0.32184,-0.13946 -0.64366,-0.27892 -0.96548,-0.41838 -0.13231,-0.0286 -0.26462,-0.0572 -0.39692,-0.0858 -0.22886,-0.0215 -0.45771,-0.0429 -0.68657,-0.0644 -0.23958,0.0107 -0.47916,0.0215 -0.71874,0.0322 -0.27893,0.0501 -0.55784,0.10013 -0.83675,0.15019 -0.17522,0.0572 -0.35044,0.11443 -0.52565,0.17164 -0.14304,0.0751 -0.28607,0.15018 -0.42911,0.22528 -0.23601,0.12873 -0.47201,0.25746 -0.70801,0.38619 -0.14662,0.12516 -0.29323,0.25031 -0.43983,0.37546 -0.16092,0.15377 -0.32183,0.30753 -0.48274,0.46129 -0.13589,0.2074 -0.27177,0.4148 -0.40765,0.6222 -0.0393,0.12515 -0.0787,0.25031 -0.118,0.37546 -0.0572,0.1788 -0.11443,0.35759 -0.17165,0.53638 -0.0787,0.1931 -0.15733,0.38619 -0.236,0.57929 -0.007,0.0143 -0.0143,0.0286 -0.0215,0.0429 -0.12516,-0.17522 -0.25031,-0.35044 -0.37547,-0.52565 -0.12158,-0.16807 -0.24315,-0.33613 -0.36473,-0.5042 -0.15377,-0.27892 -0.30752,-0.55783 -0.46129,-0.83675 -0.0644,-0.16091 -0.12873,-0.32182 -0.19309,-0.48274 -0.0858,-0.35759 -0.17165,-0.71517 -0.25747,-1.07275 0.0143,-0.37547 0.0286,-0.75093 0.0429,-1.1264 0.0429,-0.17879 0.0858,-0.35758 0.12874,-0.53638 0.12515,-0.27892 0.25031,-0.55783 0.37546,-0.83675 0.0858,-0.14661 0.17164,-0.29321 0.25746,-0.43983 0.12158,-0.13588 0.24316,-0.27176 0.36474,-0.40764 0.1788,-0.14662 0.35758,-0.29322 0.53638,-0.43983 0.28965,-0.16449 0.57928,-0.32898 0.86893,-0.49347 0.22886,-0.0894 0.45771,-0.17879 0.68656,-0.26819 0.0965,-0.0286 0.1931,-0.0572 0.28965,-0.0858 0.20025,-0.0679 0.40049,-0.13588 0.60074,-0.20382 0.25747,-0.0322 0.51492,-0.0644 0.77239,-0.0965 0.38619,-0.0215 0.77238,-0.0429 1.15857,-0.0644 0.14304,0.007 0.28607,0.0143 0.42911,0.0215 0.007,0.004 0.0143,0.007 0.0215,0.0107 0.21456,-0.13589 0.4291,-0.27177 0.64365,-0.40765 0.15377,-0.0787 0.30753,-0.15734 0.46129,-0.23601 0.17522,-0.0572 0.35044,-0.11443 0.52565,-0.17164 0.21098,-0.0715 0.42195,-0.14303 0.63293,-0.21455 0.19667,-0.0358 0.39334,-0.0715 0.59001,-0.10728 0.30753,-0.004 0.61505,-0.007 0.92257,-0.0107 0.3576,0.0501 0.71518,0.10012 1.07276,0.15018 0.31111,0.12874 0.6222,0.25746 0.9333,0.3862 0.1931,0.11443 0.38619,0.22885 0.57929,0.34328 0.17879,0.16091 0.35758,0.32182 0.53638,0.48274 0.21813,0.23243 0.43625,0.46486 0.65438,0.69729 0.13946,0.20025 0.27891,0.4005 0.41837,0.60074 0.11801,0.20741 0.23601,0.4148 0.35401,0.6222 0.1037,0.22171 0.2074,0.44341 0.3111,0.66511 0.0679,0.19667 0.13588,0.39334 0.20382,0.59001 0.10013,0.42196 0.20025,0.84391 0.30037,1.26586 0,0.11443 0,0.22885 0,0.34328 0.0322,0.16449 0.0644,0.32898 0.0966,0.49347 0,0.15734 0,0.31467 0,0.47201 -0.007,0.16092 -0.0143,0.32183 -0.0215,0.48274 0,0.21098 0,0.42195 0,0.63293 -0.025,0.27177 -0.0501,0.54353 -0.0751,0.81529 -0.0572,0.30753 -0.11443,0.61505 -0.17164,0.92257 -0.0751,0.32899 -0.15019,0.65796 -0.22528,0.98694 -0.118,0.36117 -0.23601,0.72232 -0.35401,1.08348 -0.18952,0.46487 -0.37904,0.92972 -0.56856,1.39458 -0.10012,0.20741 -0.20025,0.4148 -0.30037,0.6222 -0.36474,0.66513 -0.72948,1.33022 -1.09421,1.99533 -0.12158,0.17522 -0.24316,0.35043 -0.36474,0.52565 -0.0894,0.17522 -0.17879,0.35043 -0.26819,0.52565 -0.15019,0.21098 -0.30037,0.42195 -0.45056,0.63292 -0.19667,0.2825 -0.39334,0.56499 -0.59001,0.84748 -0.27892,0.32541 -0.55783,0.65081 -0.83675,0.97621 -0.31111,0.39693 -0.6222,0.79384 -0.9333,1.19076 -0.4756,0.62936 -0.95118,1.2587 -1.42676,1.88805 -0.21813,0.32899 -0.43626,0.65796 -0.65438,0.98694 -0.0894,0.16091 -0.1788,0.32182 -0.26819,0.48274 -0.093,0.21098 -0.18595,0.42195 -0.27892,0.63292 -0.0393,0.12516 -0.0787,0.25031 -0.118,0.37547 -0.0393,0.46129 -0.0787,0.92257 -0.11801,1.38385 -0.0858,0.0143 -0.17164,0.0286 -0.25746,0.0429 0,0.13946 0,0.27892 0,0.41838 -0.12873,-0.0322 -0.25746,-0.0644 -0.38619,-0.0965 z" />
        </g>
        <ellipse
           style="fill:#ffffff;fill-opacity:1;fill-rule:evenodd;stroke:#c41ace;stroke-width:0.0853922;stroke-dasharray:none;stroke-opacity:1"
           id="path24"
           cx="147.47466"
           cy="256.78125"
           rx="3.4835675"
           ry="3.3714383"
           transform="matrix(0.9772367,-0.2121519,-0.04755626,0.99886856,0,0)" />
        <path
           style="fill:#ffffff;fill-opacity:1;fill-rule:evenodd;stroke:none;stroke-width:0.07;stroke-dasharray:none;stroke-opacity:1"
           d="m 128.2766,226.33366 c -0.1323,0.45413 -0.39692,1.3624 -0.53272,1.82004 -0.13581,0.45763 -0.14311,0.46493 0.3718,0.45065 0.51491,-0.0143 1.55188,-0.05 1.68776,-0.50776 0.13587,-0.45771 -0.62934,-1.33736 -1.01196,-1.77719 -0.38262,-0.43983 -0.38257,-0.43987 -0.51488,0.0143 z"
           id="path25"
           inkscape:path-effect="#path-effect25"
           inkscape:original-d="m 128.40891,225.87953 c -0.26462,0.90826 -0.52923,1.81653 -0.79384,2.7248 -0.007,0.007 -0.0143,0.0143 -0.0215,0.0215 1.03702,-0.0358 2.07399,-0.0715 3.11099,-0.10728 -0.76524,-0.87968 -1.53046,-1.75932 -2.2957,-2.63898 z" />
        <path
           style="fill:#ffffff;fill-opacity:1;fill-rule:evenodd;stroke:none;stroke-width:0.07;stroke-dasharray:none;stroke-opacity:1"
           d="m 127.85107,228.58287 3.28264,-0.0644 -2.66044,-2.66044 -0.90111,2.7248 z"
           id="path26" />
        <path
           style="fill:#ffffff;fill-opacity:1;fill-rule:evenodd;stroke:none;stroke-width:0.07;stroke-dasharray:none;stroke-opacity:1"
           d="M 134.75962,231.6295 Z"
           id="path27" />
        <path
           style="fill:#ffffff;fill-opacity:1;fill-rule:evenodd;stroke:none;stroke-width:0.07;stroke-dasharray:none;stroke-opacity:1"
           d="m 128.58055,225.25733 c -0.6222,2.20988 0,0 0,0 z"
           id="path28" />
        <path
           style="fill:#ffffff;fill-opacity:1;fill-rule:evenodd;stroke:none;stroke-width:0.07;stroke-dasharray:none;stroke-opacity:1"
           d="m 128.73073,226.00826 c 0,0 -0.34328,-1.13712 -0.19309,-0.55783 0.15018,0.57929 0.19309,0.55783 0.19309,0.55783 z"
           id="path29" />
        <path
           style="fill:#ffffff;fill-opacity:1;fill-rule:evenodd;stroke:none;stroke-width:0.07;stroke-dasharray:none;stroke-opacity:1"
           d="m 128.5877,225.09642 c -0.10013,0.39692 -0.30037,1.19076 -0.23958,1.59841 0.0608,0.40766 0.38261,0.42912 0.57928,0.23961 0.19668,-0.18952 0.26819,-0.59001 0.2074,-0.99766 -0.0608,-0.40765 -0.25388,-0.82244 -0.35043,-1.02984 -0.0966,-0.2074 -0.0966,-0.20744 -0.19667,0.18948 z"
           id="path30"
           inkscape:path-effect="#path-effect30"
           inkscape:original-d="m 128.68782,224.6995 c -0.20024,0.79384 -0.40049,1.58768 -0.60074,2.38152 0.32184,0.0215 0.64365,0.0429 0.96548,0.0644 0.0715,-0.4005 0.14304,-0.80099 0.21455,-1.20149 -0.1931,-0.4148 -0.38619,-0.82959 -0.57929,-1.24439 z" />
        <path
           style="fill:#ffffff;fill-opacity:1;fill-rule:evenodd;stroke:none;stroke-width:0.07;stroke-dasharray:none;stroke-opacity:1"
           d="m 128.61631,225.02133 c -0.13588,0.40764 -0.40765,1.22294 -0.64008,1.88448 -0.23243,0.66153 -0.42552,1.16929 -0.41122,1.42676 0.0143,0.25747 0.236,0.26463 0.86179,0.23603 0.62578,-0.0286 1.65561,-0.093 2.10974,-0.55067 0.45413,-0.45772 0.33256,-1.30876 -0.0608,-1.94169 -0.39335,-0.63293 -1.05844,-1.04772 -1.391,-1.25512 -0.33255,-0.2074 -0.33255,-0.20744 -0.46843,0.20021 z"
           id="path31"
           inkscape:path-effect="#path-effect31"
           inkscape:original-d="m 128.75219,224.61368 c -0.27177,0.81529 -0.54353,1.63059 -0.81529,2.44588 -0.1931,0.50778 -0.3862,1.01554 -0.57929,1.52331 0.2217,0.007 0.4434,0.0143 0.66511,0.0215 1.02986,-0.0644 2.05969,-0.12873 3.08953,-0.19309 -0.12158,-0.85107 -0.24315,-1.70211 -0.36473,-2.55316 -0.66513,-0.41481 -1.33022,-0.8296 -1.99533,-1.2444 z" />
      </g>
      <path
         style="fill:#eeaaff;fill-opacity:1;fill-rule:evenodd;stroke:none;stroke-width:0.0429076;stroke-dasharray:none;stroke-opacity:1"
         d="m 366.86682,500.43271 c -0.48185,-0.33126 -0.20945,-1.53296 1.36275,-6.01193 0.8584,-2.44547 1.60189,-4.65211 1.6522,-4.90366 0.0503,-0.25154 0.25551,-0.6226 0.45599,-0.82456 0.20049,-0.20197 0.58506,-0.80558 0.8546,-1.34137 2.12053,-4.2152 6.88101,-7.45001 11.28486,-7.66822 2.64567,-0.13109 4.41002,0.44777 6.08147,1.99523 1.59754,1.47904 2.29942,3.23929 2.29224,5.74869 -0.005,1.6075 -0.14956,2.331 -0.8103,4.04437 -1.24378,3.22521 -4.35664,6.45919 -7.65824,7.95621 -2.21033,1.00221 -2.91578,1.08549 -8.55644,1.01015 -1.38259,-0.0185 -3.46255,0.008 -4.62215,0.0593 -1.25894,0.0555 -2.20045,0.0296 -2.33698,-0.0643 z"
         id="path32"
         transform="scale(0.26458333)" />
      <path
         style="fill:#eeaaff;fill-opacity:1;fill-rule:evenodd;stroke:none;stroke-width:0.0429076;stroke-dasharray:none;stroke-opacity:1"
         d="m 366.74585,500.15722 c -0.15657,-0.40802 0.3668,-2.26138 1.91193,-6.77059 0.92551,-2.70096 1.65144,-4.54598 1.99137,-5.06128 0.29422,-0.446 0.7827,-1.23995 1.08551,-1.76435 0.68116,-1.17958 2.43182,-3.08313 3.76432,-4.09305 1.27536,-0.96662 3.61046,-2.08366 5.06498,-2.42293 0.80086,-0.18681 1.66834,-0.24651 2.99282,-0.20597 1.69131,0.0518 1.966,0.1047 2.94837,0.56822 1.8702,0.88243 3.22729,2.38134 3.86208,4.26569 0.48624,1.44338 0.48214,4.01258 -0.009,5.59855 -1.52991,4.94094 -6.32551,9.29889 -10.97209,9.97076 -0.60515,0.0875 -3.67516,0.16054 -6.82223,0.16231 -5.01262,0.003 -5.73387,-0.0279 -5.81811,-0.24736 z"
         id="path33"
         transform="scale(0.26458333)" />
      <path
         style="fill:#eeaaff;fill-opacity:1;fill-rule:evenodd;stroke:none;stroke-width:0.0429076;stroke-dasharray:none;stroke-opacity:1"
         d="m 366.75743,500.18737 c -0.17201,-0.44823 0.27714,-2.06948 1.82222,-6.57751 0.94764,-2.76491 1.72911,-4.76854 2.05795,-5.27649 0.29159,-0.45041 0.7816,-1.24875 1.0889,-1.77409 0.71755,-1.22666 2.6813,-3.32496 3.97716,-4.24967 1.31589,-0.93899 3.46407,-1.93889 4.87022,-2.26689 0.79035,-0.18436 1.6642,-0.24403 2.9829,-0.20367 1.69409,0.0519 1.96503,0.10424 2.95546,0.57154 1.90387,0.89826 3.39666,2.59315 3.93547,4.46824 0.39893,1.38828 0.35623,3.95012 -0.0899,5.39268 -1.37895,4.45912 -5.34472,8.41509 -9.80139,9.77719 -1.22715,0.37505 -13.66036,0.5 -13.79901,0.13867 z"
         id="path34"
         transform="scale(0.26458333)" />
      <path
         style="fill:#eeaaff;fill-opacity:1;fill-rule:evenodd;stroke:none;stroke-width:0.0429076;stroke-dasharray:none;stroke-opacity:1"
         d="m 366.75245,500.17442 c -0.1671,-0.43546 0.29593,-2.10756 1.81032,-6.53741 1.38471,-4.05051 1.60895,-4.57744 2.68796,-6.31644 1.93153,-3.11298 4.00898,-5.05063 6.83473,-6.37482 1.96645,-0.92151 3.2223,-1.17553 5.47132,-1.1067 1.69631,0.0519 1.96425,0.10387 2.96117,0.57421 1.22048,0.57581 2.66438,1.84391 3.26341,2.86609 0.66206,1.12971 0.95016,2.42105 0.94156,4.22036 -0.009,1.8112 -0.34019,3.15591 -1.20321,4.88015 -1.58398,3.16468 -5.02734,6.29455 -8.12143,7.38203 -1.53952,0.5411 -2.89006,0.63935 -8.83432,0.64269 -4.8308,0.003 -5.7359,-0.0331 -5.81151,-0.23016 z"
         id="path35"
         transform="scale(0.26458333)" />
      <path
         style="fill:#eeaaff;fill-opacity:1;fill-rule:evenodd;stroke:none;stroke-width:0.0429076;stroke-dasharray:none;stroke-opacity:1"
         d="m 366.74829,500.16356 c -0.17105,-0.44574 0.22758,-1.88204 1.80856,-6.51643 1.38216,-4.05158 1.60005,-4.56369 2.6876,-6.31644 2.36765,-3.81585 5.35697,-6.20973 9.00355,-7.21016 1.02732,-0.28184 1.59164,-0.33184 3.21853,-0.28516 1.90002,0.0545 2.01812,0.079 3.20178,0.66416 2.37151,1.17237 3.72151,3.1059 4.01868,5.75575 0.46858,4.17838 -1.77982,8.5862 -5.98284,11.72888 -1.01214,0.7568 -3.16224,1.83187 -4.2288,2.11446 -0.48169,0.12762 -2.92159,0.21745 -7.17661,0.26422 -5.90558,0.0649 -6.45549,0.0482 -6.55045,-0.19928 z"
         id="path36"
         transform="scale(0.26458333)" />
      <path
         style="fill:#eeaaff;fill-opacity:1;fill-rule:evenodd;stroke:#c41ace;stroke-width:0.79748;stroke-dasharray:none;stroke-opacity:1"
         d="m 366.74332,500.1506 c -0.16532,-0.43079 0.24318,-1.89881 1.80645,-6.49179 1.37922,-4.05223 1.59015,-4.548 2.68743,-6.31644 1.93793,-3.12329 3.97438,-5.03109 6.81706,-6.38641 2.03465,-0.97008 3.08483,-1.18737 5.41534,-1.12051 1.89652,0.0544 2.01538,0.0791 3.19871,0.66408 3.04869,1.50713 4.44626,4.35811 4.01159,8.18344 -0.59234,5.213 -6.10824,10.89837 -11.21733,11.56198 -0.64716,0.084 -3.75154,0.15508 -6.89861,0.15783 -5.07716,0.004 -5.73307,-0.024 -5.82064,-0.25218 z"
         id="path37"
         transform="scale(0.26458333)" />
    </g>
  </g>
</svg>
